# xmcd CD database file
#
# Track frame offsets:
#	150
#	16559
#	41845
#	60027
#	92737
#	116691
#	144650
#	169108
#	196803
#	222884
#	245065
#
# Disc length: 3532 seconds
#
# Revision: 0
# Processed by: cddbd v1.5.2PL0 Copyright (c) Steve Scherf et al.
# Submitted via: CDex 1.70beta2
#
DISCID=8f0dca0b
DTITLE=Salsa fuerte - Fantasia
DYEAR=2007
DGENRE=Jazz
TTITLE0=Salsaqua
TTITLE1=Inleambique
TTITLE2=Terminal
TTITLE3=Fantasia
TTITLE4=The Underground King
TTITLE5=Desea
TTITLE6=Caravan
TTITLE7=Guajira para violin y bajo
TTITLE8=Linda manana
TTITLE9=Racing mind
TTITLE10=No tengas pena
EXTD=YEAR: 2007
EXTT0=
EXTT1=
EXTT2=
EXTT3=
EXTT4=
EXTT5=
EXTT6=
EXTT7=
EXTT8=
EXTT9=
EXTT10=
PLAYORDER=
